<svg xmlns="http://www.w3.org/2000/svg" viewBox="0 0 160 160"><circle cx="80" cy="80" r="64" fill="#efcc9130"/><g stroke="#38241e" stroke-width="7" stroke-linejoin="round"><path d="M32 75L80 29 128 75V130H32Z" fill="#b98065"/><path d="M23 75L80 18 137 75 124 83 80 42 36 83Z" fill="#d7b97a"/><path d="M65 89Q80 73 95 89V130H65Z" fill="#614557"/><path d="M41 85H55V104H41ZM105 85H119V104H105Z" fill="#ffe2a0"/><path d="M80 47Q55 36 61 60L80 77 99 60Q105 36 80 47Z" fill="#d6919e"/></g><g stroke="#efd49a" stroke-width="2.5" stroke-linejoin="round"><path d="M32 75L80 29 128 75V130H32Z" fill="#b98065"/><path d="M23 75L80 18 137 75 124 83 80 42 36 83Z" fill="#d7b97a"/><path d="M65 89Q80 73 95 89V130H65Z" fill="#614557"/><path d="M41 85H55V104H41ZM105 85H119V104H105Z" fill="#ffe2a0"/><path d="M80 47Q55 36 61 60L80 77 99 60Q105 36 80 47Z" fill="#d6919e"/></g><path d="M24 29v10m-5-5h10M130 120v10m-5-5h10" stroke="#fff1ca" stroke-width="2"/></svg>
