<svg xmlns="http://www.w3.org/2000/svg" viewBox="0 0 160 160"><defs><radialGradient id="halo"><stop stop-color="#efd497" stop-opacity=".32"/><stop offset="1" stop-color="#efd497" stop-opacity="0"/></radialGradient></defs><circle cx="80" cy="80" r="78" fill="url(#halo)"/><g stroke="#38241e" stroke-width="7" stroke-linejoin="round"><path d="M68 30H92V55L113 108Q117 129 80 133Q43 129 47 108L68 55Z" fill="#57a89e"/><path d="M57 94H103L110 115Q80 134 50 115Z" fill="#a9e6b8"/><path d="M66 24H94V39H66Z" fill="#af7645"/><path d="M80 61L87 79 104 81 90 92 94 109 80 99 66 109 70 92 56 81 73 79Z" fill="#ffecae"/></g><g stroke="#efd49a" stroke-width="2.5" stroke-linejoin="round"><path d="M68 30H92V55L113 108Q117 129 80 133Q43 129 47 108L68 55Z" fill="#57a89e"/><path d="M57 94H103L110 115Q80 134 50 115Z" fill="#a9e6b8"/><path d="M66 24H94V39H66Z" fill="#af7645"/><path d="M80 61L87 79 104 81 90 92 94 109 80 99 66 109 70 92 56 81 73 79Z" fill="#ffecae"/></g><path d="M26 24v10m-5-5h10M129 122v10m-5-5h10" stroke="#ffeac0" stroke-width="2" fill="none"/></svg>
