<svg xmlns="http://www.w3.org/2000/svg" viewBox="0 0 160 160"><defs><radialGradient id="halo"><stop stop-color="#efd497" stop-opacity=".32"/><stop offset="1" stop-color="#efd497" stop-opacity="0"/></radialGradient></defs><circle cx="80" cy="80" r="78" fill="url(#halo)"/><g stroke="#38241e" stroke-width="7" stroke-linejoin="round"><path d="M66 30Q80 5 94 30L88 42H72Z" fill="#bd944f"/><path d="M80 36Q130 87 113 115Q80 149 47 115Q30 87 80 36Z" fill="#238b9b"/><path d="M80 51Q114 89 102 110Q79 133 58 109Q46 87 80 51Z" fill="#9cf2dc"/><path d="M54 99Q74 77 91 97Q103 105 110 96" fill="none"/></g><g stroke="#efd49a" stroke-width="2.5" stroke-linejoin="round"><path d="M66 30Q80 5 94 30L88 42H72Z" fill="#bd944f"/><path d="M80 36Q130 87 113 115Q80 149 47 115Q30 87 80 36Z" fill="#238b9b"/><path d="M80 51Q114 89 102 110Q79 133 58 109Q46 87 80 51Z" fill="#9cf2dc"/><path d="M54 99Q74 77 91 97Q103 105 110 96" fill="none"/></g><path d="M26 24v10m-5-5h10M129 122v10m-5-5h10" stroke="#ffeac0" stroke-width="2" fill="none"/></svg>
